<?xml version="1.0" encoding="UTF-8" standalone="no"?>
<!DOCTYPE svg PUBLIC "-//W3C//DTD SVG 1.1//EN"
 "http://www.w3.org/Graphics/SVG/1.1/DTD/svg11.dtd">
<!-- Generated by graphviz version 2.43.0 (0)
 -->
<!-- Title: controllers_diagram Pages: 1 -->
<svg width="538pt" height="535pt"
 viewBox="0.00 0.00 537.90 535.00" xmlns="http://www.w3.org/2000/svg" xmlns:xlink="http://www.w3.org/1999/xlink">
<g id="graph0" class="graph" transform="scale(1 1) rotate(0) translate(4 531)">
<title>controllers_diagram</title>
<polygon fill="transparent" stroke="transparent" points="-4,4 -4,-531 533.9,-531 533.9,4 -4,4"/>
<!-- _diagram_info -->
<g id="node1" class="node">
<title>_diagram_info</title>
<text text-anchor="start" x="331" y="-415.6" font-family="Times,serif" font-size="13.00">Controllers diagram</text>
<text text-anchor="start" x="331" y="-402.6" font-family="Times,serif" font-size="13.00">Date: Dec 02 2019 &#45; 20:53</text>
<text text-anchor="start" x="331" y="-389.6" font-family="Times,serif" font-size="13.00">Migration version: 20191126142819</text>
<text text-anchor="start" x="331" y="-376.6" font-family="Times,serif" font-size="13.00">Generated by RailRoady 1.5.3</text>
<text text-anchor="start" x="331" y="-363.6" font-family="Times,serif" font-size="13.00">http://railroady.prestonlee.com</text>
</g>
<!-- ApplicationController -->
<g id="node2" class="node">
<title>ApplicationController</title>
<path fill="none" stroke="black" d="M165,-357.5C165,-357.5 280.64,-357.5 280.64,-357.5 286.64,-357.5 292.64,-363.5 292.64,-369.5 292.64,-369.5 292.64,-491.5 292.64,-491.5 292.64,-497.5 286.64,-503.5 280.64,-503.5 280.64,-503.5 165,-503.5 165,-503.5 159,-503.5 153,-497.5 153,-491.5 153,-491.5 153,-369.5 153,-369.5 153,-363.5 159,-357.5 165,-357.5"/>
<text text-anchor="middle" x="222.82" y="-488.3" font-family="Times,serif" font-size="14.00">ApplicationController</text>
<polyline fill="none" stroke="black" points="153,-481.5 292.64,-481.5 "/>
<text text-anchor="start" x="161" y="-466.3" font-family="Times,serif" font-size="14.00">admin?</text>
<text text-anchor="start" x="161" y="-452.3" font-family="Times,serif" font-size="14.00">current_address</text>
<text text-anchor="start" x="161" y="-438.3" font-family="Times,serif" font-size="14.00">current_user</text>
<text text-anchor="start" x="161" y="-424.3" font-family="Times,serif" font-size="14.00">driver?</text>
<text text-anchor="start" x="161" y="-410.3" font-family="Times,serif" font-size="14.00">hello</text>
<polyline fill="none" stroke="black" points="153,-403.5 292.64,-403.5 "/>
<polyline fill="none" stroke="black" points="153,-379.5 292.64,-379.5 "/>
<text text-anchor="start" x="161" y="-364.3" font-family="Times,serif" font-size="14.00">_layout</text>
</g>
<!-- RiderApplicationsController -->
<g id="node3" class="node">
<title>RiderApplicationsController</title>
<path fill="none" stroke="black" d="M97,-119.5C97,-119.5 249.19,-119.5 249.19,-119.5 255.19,-119.5 261.19,-125.5 261.19,-131.5 261.19,-131.5 261.19,-309.5 261.19,-309.5 261.19,-315.5 255.19,-321.5 249.19,-321.5 249.19,-321.5 97,-321.5 97,-321.5 91,-321.5 85,-315.5 85,-309.5 85,-309.5 85,-131.5 85,-131.5 85,-125.5 91,-119.5 97,-119.5"/>
<text text-anchor="middle" x="173.1" y="-306.3" font-family="Times,serif" font-size="14.00">RiderApplicationsController</text>
<polyline fill="none" stroke="black" points="85,-299.5 261.19,-299.5 "/>
<text text-anchor="start" x="93" y="-284.3" font-family="Times,serif" font-size="14.00">create</text>
<text text-anchor="start" x="93" y="-270.3" font-family="Times,serif" font-size="14.00">destroy</text>
<text text-anchor="start" x="93" y="-256.3" font-family="Times,serif" font-size="14.00">edit</text>
<text text-anchor="start" x="93" y="-242.3" font-family="Times,serif" font-size="14.00">index</text>
<text text-anchor="start" x="93" y="-228.3" font-family="Times,serif" font-size="14.00">new</text>
<text text-anchor="start" x="93" y="-214.3" font-family="Times,serif" font-size="14.00">show</text>
<text text-anchor="start" x="93" y="-200.3" font-family="Times,serif" font-size="14.00">update</text>
<polyline fill="none" stroke="black" points="85,-193.5 261.19,-193.5 "/>
<polyline fill="none" stroke="black" points="85,-169.5 261.19,-169.5 "/>
<text text-anchor="start" x="93" y="-154.3" font-family="Times,serif" font-size="14.00">_layout</text>
<text text-anchor="start" x="93" y="-140.3" font-family="Times,serif" font-size="14.00">rider_application_params</text>
<text text-anchor="start" x="93" y="-126.3" font-family="Times,serif" font-size="14.00">set_rider_application</text>
</g>
<!-- UsersController -->
<g id="node4" class="node">
<title>UsersController</title>
<path fill="none" stroke="black" d="M301,-119.5C301,-119.5 382.43,-119.5 382.43,-119.5 388.43,-119.5 394.43,-125.5 394.43,-131.5 394.43,-131.5 394.43,-309.5 394.43,-309.5 394.43,-315.5 388.43,-321.5 382.43,-321.5 382.43,-321.5 301,-321.5 301,-321.5 295,-321.5 289,-315.5 289,-309.5 289,-309.5 289,-131.5 289,-131.5 289,-125.5 295,-119.5 301,-119.5"/>
<text text-anchor="middle" x="341.71" y="-306.3" font-family="Times,serif" font-size="14.00">UsersController</text>
<polyline fill="none" stroke="black" points="289,-299.5 394.43,-299.5 "/>
<text text-anchor="start" x="297" y="-284.3" font-family="Times,serif" font-size="14.00">create</text>
<text text-anchor="start" x="297" y="-270.3" font-family="Times,serif" font-size="14.00">destroy</text>
<text text-anchor="start" x="297" y="-256.3" font-family="Times,serif" font-size="14.00">edit</text>
<text text-anchor="start" x="297" y="-242.3" font-family="Times,serif" font-size="14.00">index</text>
<text text-anchor="start" x="297" y="-228.3" font-family="Times,serif" font-size="14.00">new</text>
<text text-anchor="start" x="297" y="-214.3" font-family="Times,serif" font-size="14.00">show</text>
<text text-anchor="start" x="297" y="-200.3" font-family="Times,serif" font-size="14.00">update</text>
<polyline fill="none" stroke="black" points="289,-193.5 394.43,-193.5 "/>
<polyline fill="none" stroke="black" points="289,-169.5 394.43,-169.5 "/>
<text text-anchor="start" x="297" y="-154.3" font-family="Times,serif" font-size="14.00">_layout</text>
<text text-anchor="start" x="297" y="-140.3" font-family="Times,serif" font-size="14.00">set_user</text>
<text text-anchor="start" x="297" y="-126.3" font-family="Times,serif" font-size="14.00">user_params</text>
</g>
<!-- GreetingsController -->
<g id="node5" class="node">
<title>GreetingsController</title>
<path fill="none" stroke="black" d="M199,-0.5C199,-0.5 302.97,-0.5 302.97,-0.5 308.97,-0.5 314.97,-6.5 314.97,-12.5 314.97,-12.5 314.97,-78.5 314.97,-78.5 314.97,-84.5 308.97,-90.5 302.97,-90.5 302.97,-90.5 199,-90.5 199,-90.5 193,-90.5 187,-84.5 187,-78.5 187,-78.5 187,-12.5 187,-12.5 187,-6.5 193,-0.5 199,-0.5"/>
<text text-anchor="middle" x="250.99" y="-75.3" font-family="Times,serif" font-size="14.00">GreetingsController</text>
<polyline fill="none" stroke="black" points="187,-68.5 314.97,-68.5 "/>
<text text-anchor="start" x="195" y="-53.3" font-family="Times,serif" font-size="14.00">hello</text>
<polyline fill="none" stroke="black" points="187,-46.5 314.97,-46.5 "/>
<polyline fill="none" stroke="black" points="187,-22.5 314.97,-22.5 "/>
<text text-anchor="start" x="195" y="-7.3" font-family="Times,serif" font-size="14.00">_layout</text>
</g>
<!-- SessionsController -->
<g id="node6" class="node">
<title>SessionsController</title>
<path fill="none" stroke="black" d="M12,-408.5C12,-408.5 109.78,-408.5 109.78,-408.5 115.78,-408.5 121.78,-414.5 121.78,-420.5 121.78,-420.5 121.78,-514.5 121.78,-514.5 121.78,-520.5 115.78,-526.5 109.78,-526.5 109.78,-526.5 12,-526.5 12,-526.5 6,-526.5 0,-520.5 0,-514.5 0,-514.5 0,-420.5 0,-420.5 0,-414.5 6,-408.5 12,-408.5"/>
<text text-anchor="middle" x="60.89" y="-511.3" font-family="Times,serif" font-size="14.00">SessionsController</text>
<polyline fill="none" stroke="black" points="0,-504.5 121.78,-504.5 "/>
<text text-anchor="start" x="8" y="-489.3" font-family="Times,serif" font-size="14.00">create</text>
<text text-anchor="start" x="8" y="-475.3" font-family="Times,serif" font-size="14.00">destroy</text>
<text text-anchor="start" x="8" y="-461.3" font-family="Times,serif" font-size="14.00">new</text>
<polyline fill="none" stroke="black" points="0,-454.5 121.78,-454.5 "/>
<polyline fill="none" stroke="black" points="0,-430.5 121.78,-430.5 "/>
<text text-anchor="start" x="8" y="-415.3" font-family="Times,serif" font-size="14.00">_layout</text>
</g>
</g>
</svg>
