<?xml version="1.0" encoding="UTF-8" standalone="no"?>
<!DOCTYPE svg PUBLIC "-//W3C//DTD SVG 1.1//EN"
 "http://www.w3.org/Graphics/SVG/1.1/DTD/svg11.dtd">
<!-- Generated by graphviz version 2.43.0 (0)
 -->
<!-- Title: models_diagram Pages: 1 -->
<svg width="974pt" height="179pt"
 viewBox="0.00 0.00 974.07 179.00" xmlns="http://www.w3.org/2000/svg" xmlns:xlink="http://www.w3.org/1999/xlink">
<g id="graph0" class="graph" transform="scale(1 1) rotate(0) translate(4 175)">
<title>models_diagram</title>
<polygon fill="transparent" stroke="transparent" points="-4,4 -4,-175 970.07,-175 970.07,4 -4,4"/>
<!-- _diagram_info -->
<g id="node1" class="node">
<title>_diagram_info</title>
<text text-anchor="start" x="8" y="-107.6" font-family="Times,serif" font-size="13.00">Models diagram</text>
<text text-anchor="start" x="8" y="-94.6" font-family="Times,serif" font-size="13.00">Date: Nov 01 2019 &#45; 23:26</text>
<text text-anchor="start" x="8" y="-81.6" font-family="Times,serif" font-size="13.00">Migration version: 20191102011649</text>
<text text-anchor="start" x="8" y="-68.6" font-family="Times,serif" font-size="13.00">Generated by RailRoady 1.5.3</text>
<text text-anchor="start" x="8" y="-55.6" font-family="Times,serif" font-size="13.00">http://railroady.prestonlee.com</text>
</g>
<!-- RiderApplication -->
<g id="node2" class="node">
<title>RiderApplication</title>
<path fill="none" stroke="black" d="M236.76,-0.5C236.76,-0.5 515.67,-0.5 515.67,-0.5 521.67,-0.5 527.67,-6.5 527.67,-12.5 527.67,-12.5 527.67,-158.5 527.67,-158.5 527.67,-164.5 521.67,-170.5 515.67,-170.5 515.67,-170.5 236.76,-170.5 236.76,-170.5 230.76,-170.5 224.76,-164.5 224.76,-158.5 224.76,-158.5 224.76,-12.5 224.76,-12.5 224.76,-6.5 230.76,-0.5 236.76,-0.5"/>
<text text-anchor="middle" x="376.21" y="-155.3" font-family="Times,serif" font-size="14.00">RiderApplication</text>
<polyline fill="none" stroke="black" points="224.76,-148.5 527.67,-148.5 "/>
<text text-anchor="start" x="232.76" y="-133.3" font-family="Times,serif" font-size="14.00">application_received :timestamp without time zone</text>
<text text-anchor="start" x="232.76" y="-119.3" font-family="Times,serif" font-size="14.00">Name :character varying</text>
<text text-anchor="start" x="232.76" y="-105.3" font-family="Times,serif" font-size="14.00">Phone :character varying</text>
<text text-anchor="start" x="232.76" y="-91.3" font-family="Times,serif" font-size="14.00">created_at :timestamp without time zone</text>
<text text-anchor="start" x="232.76" y="-77.3" font-family="Times,serif" font-size="14.00">updated_at :timestamp without time zone</text>
<text text-anchor="start" x="232.76" y="-63.3" font-family="Times,serif" font-size="14.00">street_address :character varying</text>
<text text-anchor="start" x="232.76" y="-49.3" font-family="Times,serif" font-size="14.00">zip_code :integer</text>
<text text-anchor="start" x="232.76" y="-35.3" font-family="Times,serif" font-size="14.00">city :character varying</text>
<text text-anchor="start" x="232.76" y="-21.3" font-family="Times,serif" font-size="14.00">number_passengers :integer</text>
<text text-anchor="start" x="232.76" y="-7.3" font-family="Times,serif" font-size="14.00">id :integer</text>
</g>
<!-- ApplicationRecord -->
<g id="node3" class="node">
<title>ApplicationRecord</title>
<ellipse fill="none" stroke="black" cx="623.21" cy="-85.5" rx="77.29" ry="18"/>
<text text-anchor="middle" x="623.21" y="-81.3" font-family="Times,serif" font-size="14.00">ApplicationRecord</text>
</g>
<!-- User -->
<g id="node4" class="node">
<title>User</title>
<path fill="none" stroke="black" d="M730.35,-7.5C730.35,-7.5 954.07,-7.5 954.07,-7.5 960.07,-7.5 966.07,-13.5 966.07,-19.5 966.07,-19.5 966.07,-151.5 966.07,-151.5 966.07,-157.5 960.07,-163.5 954.07,-163.5 954.07,-163.5 730.35,-163.5 730.35,-163.5 724.35,-163.5 718.35,-157.5 718.35,-151.5 718.35,-151.5 718.35,-19.5 718.35,-19.5 718.35,-13.5 724.35,-7.5 730.35,-7.5"/>
<text text-anchor="middle" x="842.21" y="-148.3" font-family="Times,serif" font-size="14.00">User</text>
<polyline fill="none" stroke="black" points="718.35,-141.5 966.07,-141.5 "/>
<text text-anchor="start" x="726.35" y="-126.3" font-family="Times,serif" font-size="14.00">updated_at :timestamp without time zone</text>
<text text-anchor="start" x="726.35" y="-112.3" font-family="Times,serif" font-size="14.00">email :character varying</text>
<text text-anchor="start" x="726.35" y="-98.3" font-family="Times,serif" font-size="14.00">password_digest :character varying</text>
<text text-anchor="start" x="726.35" y="-84.3" font-family="Times,serif" font-size="14.00">role :character varying</text>
<text text-anchor="start" x="726.35" y="-70.3" font-family="Times,serif" font-size="14.00">first_name :character varying</text>
<text text-anchor="start" x="726.35" y="-56.3" font-family="Times,serif" font-size="14.00">last_name :character varying</text>
<text text-anchor="start" x="726.35" y="-42.3" font-family="Times,serif" font-size="14.00">uin :integer</text>
<text text-anchor="start" x="726.35" y="-28.3" font-family="Times,serif" font-size="14.00">created_at :timestamp without time zone</text>
<text text-anchor="start" x="726.35" y="-14.3" font-family="Times,serif" font-size="14.00">id :integer</text>
</g>
</g>
</svg>
