<?xml version="1.0" encoding="UTF-8" standalone="no"?>
<!DOCTYPE svg PUBLIC "-//W3C//DTD SVG 1.1//EN"
 "http://www.w3.org/Graphics/SVG/1.1/DTD/svg11.dtd">
<!-- Generated by graphviz version 2.43.0 (0)
 -->
<!-- Title: models_diagram Pages: 1 -->
<svg width="1047pt" height="207pt"
 viewBox="0.00 0.00 1047.31 207.00" xmlns="http://www.w3.org/2000/svg" xmlns:xlink="http://www.w3.org/1999/xlink">
<g id="graph0" class="graph" transform="scale(1 1) rotate(0) translate(4 203)">
<title>models_diagram</title>
<polygon fill="transparent" stroke="transparent" points="-4,4 -4,-203 1043.31,-203 1043.31,4 -4,4"/>
<!-- _diagram_info -->
<g id="node1" class="node">
<title>_diagram_info</title>
<text text-anchor="start" x="8" y="-121.6" font-family="Times,serif" font-size="13.00">Models diagram</text>
<text text-anchor="start" x="8" y="-108.6" font-family="Times,serif" font-size="13.00">Date: Dec 02 2019 &#45; 20:53</text>
<text text-anchor="start" x="8" y="-95.6" font-family="Times,serif" font-size="13.00">Migration version: 20191126142819</text>
<text text-anchor="start" x="8" y="-82.6" font-family="Times,serif" font-size="13.00">Generated by RailRoady 1.5.3</text>
<text text-anchor="start" x="8" y="-69.6" font-family="Times,serif" font-size="13.00">http://railroady.prestonlee.com</text>
</g>
<!-- RiderApplication -->
<g id="node2" class="node">
<title>RiderApplication</title>
<path fill="none" stroke="black" d="M236.99,-0.5C236.99,-0.5 515.91,-0.5 515.91,-0.5 521.91,-0.5 527.91,-6.5 527.91,-12.5 527.91,-12.5 527.91,-186.5 527.91,-186.5 527.91,-192.5 521.91,-198.5 515.91,-198.5 515.91,-198.5 236.99,-198.5 236.99,-198.5 230.99,-198.5 224.99,-192.5 224.99,-186.5 224.99,-186.5 224.99,-12.5 224.99,-12.5 224.99,-6.5 230.99,-0.5 236.99,-0.5"/>
<text text-anchor="middle" x="376.45" y="-183.3" font-family="Times,serif" font-size="14.00">RiderApplication</text>
<polyline fill="none" stroke="black" points="224.99,-176.5 527.91,-176.5 "/>
<text text-anchor="start" x="232.99" y="-161.3" font-family="Times,serif" font-size="14.00">notes :text</text>
<text text-anchor="start" x="232.99" y="-147.3" font-family="Times,serif" font-size="14.00">Name :character varying</text>
<text text-anchor="start" x="232.99" y="-133.3" font-family="Times,serif" font-size="14.00">Phone :character varying</text>
<text text-anchor="start" x="232.99" y="-119.3" font-family="Times,serif" font-size="14.00">created_at :timestamp without time zone</text>
<text text-anchor="start" x="232.99" y="-105.3" font-family="Times,serif" font-size="14.00">updated_at :timestamp without time zone</text>
<text text-anchor="start" x="232.99" y="-91.3" font-family="Times,serif" font-size="14.00">street_address :character varying</text>
<text text-anchor="start" x="232.99" y="-77.3" font-family="Times,serif" font-size="14.00">zip_code :integer</text>
<text text-anchor="start" x="232.99" y="-63.3" font-family="Times,serif" font-size="14.00">city :character varying</text>
<text text-anchor="start" x="232.99" y="-49.3" font-family="Times,serif" font-size="14.00">number_passengers :integer</text>
<text text-anchor="start" x="232.99" y="-35.3" font-family="Times,serif" font-size="14.00">application_received :timestamp without time zone</text>
<text text-anchor="start" x="232.99" y="-21.3" font-family="Times,serif" font-size="14.00">ride_status :character varying</text>
<text text-anchor="start" x="232.99" y="-7.3" font-family="Times,serif" font-size="14.00">id :integer</text>
</g>
<!-- Ability -->
<g id="node3" class="node">
<title>Ability</title>
<polygon fill="none" stroke="black" points="545.62,-77.5 545.62,-121.5 601.28,-121.5 601.28,-77.5 545.62,-77.5"/>
<text text-anchor="middle" x="573.45" y="-106.3" font-family="Times,serif" font-size="14.00">Ability</text>
<polyline fill="none" stroke="black" points="545.62,-99.5 601.28,-99.5 "/>
<text text-anchor="middle" x="573.45" y="-84.3" font-family="Times,serif" font-size="14.00"> </text>
</g>
<!-- ApplicationRecord -->
<g id="node4" class="node">
<title>ApplicationRecord</title>
<ellipse fill="none" stroke="black" cx="696.45" cy="-99.5" rx="77.29" ry="18"/>
<text text-anchor="middle" x="696.45" y="-95.3" font-family="Times,serif" font-size="14.00">ApplicationRecord</text>
</g>
<!-- User -->
<g id="node5" class="node">
<title>User</title>
<path fill="none" stroke="black" d="M803.59,-21.5C803.59,-21.5 1027.31,-21.5 1027.31,-21.5 1033.31,-21.5 1039.31,-27.5 1039.31,-33.5 1039.31,-33.5 1039.31,-165.5 1039.31,-165.5 1039.31,-171.5 1033.31,-177.5 1027.31,-177.5 1027.31,-177.5 803.59,-177.5 803.59,-177.5 797.59,-177.5 791.59,-171.5 791.59,-165.5 791.59,-165.5 791.59,-33.5 791.59,-33.5 791.59,-27.5 797.59,-21.5 803.59,-21.5"/>
<text text-anchor="middle" x="915.45" y="-162.3" font-family="Times,serif" font-size="14.00">User</text>
<polyline fill="none" stroke="black" points="791.59,-155.5 1039.31,-155.5 "/>
<text text-anchor="start" x="799.59" y="-140.3" font-family="Times,serif" font-size="14.00">updated_at :timestamp without time zone</text>
<text text-anchor="start" x="799.59" y="-126.3" font-family="Times,serif" font-size="14.00">email :character varying</text>
<text text-anchor="start" x="799.59" y="-112.3" font-family="Times,serif" font-size="14.00">password_digest :character varying</text>
<text text-anchor="start" x="799.59" y="-98.3" font-family="Times,serif" font-size="14.00">role :character varying</text>
<text text-anchor="start" x="799.59" y="-84.3" font-family="Times,serif" font-size="14.00">first_name :character varying</text>
<text text-anchor="start" x="799.59" y="-70.3" font-family="Times,serif" font-size="14.00">last_name :character varying</text>
<text text-anchor="start" x="799.59" y="-56.3" font-family="Times,serif" font-size="14.00">uin :integer</text>
<text text-anchor="start" x="799.59" y="-42.3" font-family="Times,serif" font-size="14.00">created_at :timestamp without time zone</text>
<text text-anchor="start" x="799.59" y="-28.3" font-family="Times,serif" font-size="14.00">id :integer</text>
</g>
</g>
</svg>
