<?xml version="1.0" encoding="UTF-8" standalone="no"?>
<!DOCTYPE svg PUBLIC "-//W3C//DTD SVG 1.1//EN"
 "http://www.w3.org/Graphics/SVG/1.1/DTD/svg11.dtd">
<!-- Generated by graphviz version 2.43.0 (0)
 -->
<!-- Title: controllers_diagram Pages: 1 -->
<svg width="423pt" height="339pt"
 viewBox="0.00 0.00 423.38 339.00" xmlns="http://www.w3.org/2000/svg" xmlns:xlink="http://www.w3.org/1999/xlink">
<g id="graph0" class="graph" transform="scale(1 1) rotate(0) translate(4 335)">
<title>controllers_diagram</title>
<polygon fill="transparent" stroke="transparent" points="-4,4 -4,-335 419.38,-335 419.38,4 -4,4"/>
<!-- _diagram_info -->
<g id="node1" class="node">
<title>_diagram_info</title>
<text text-anchor="start" x="216" y="-58.6" font-family="Times,serif" font-size="13.00">Controllers diagram</text>
<text text-anchor="start" x="216" y="-45.6" font-family="Times,serif" font-size="13.00">Date: Oct 18 2019 &#45; 00:24</text>
<text text-anchor="start" x="216" y="-32.6" font-family="Times,serif" font-size="13.00">Migration version: 20191016215222</text>
<text text-anchor="start" x="216" y="-19.6" font-family="Times,serif" font-size="13.00">Generated by RailRoady 1.5.3</text>
<text text-anchor="start" x="216" y="-6.6" font-family="Times,serif" font-size="13.00">http://railroady.prestonlee.com</text>
</g>
<!-- ApplicationController -->
<g id="node2" class="node">
<title>ApplicationController</title>
<path fill="none" stroke="black" d="M220,-112.5C220,-112.5 335.64,-112.5 335.64,-112.5 341.64,-112.5 347.64,-118.5 347.64,-124.5 347.64,-124.5 347.64,-190.5 347.64,-190.5 347.64,-196.5 341.64,-202.5 335.64,-202.5 335.64,-202.5 220,-202.5 220,-202.5 214,-202.5 208,-196.5 208,-190.5 208,-190.5 208,-124.5 208,-124.5 208,-118.5 214,-112.5 220,-112.5"/>
<text text-anchor="middle" x="277.82" y="-187.3" font-family="Times,serif" font-size="14.00">ApplicationController</text>
<polyline fill="none" stroke="black" points="208,-180.5 347.64,-180.5 "/>
<text text-anchor="start" x="216" y="-165.3" font-family="Times,serif" font-size="14.00">hello</text>
<polyline fill="none" stroke="black" points="208,-158.5 347.64,-158.5 "/>
<polyline fill="none" stroke="black" points="208,-134.5 347.64,-134.5 "/>
<text text-anchor="start" x="216" y="-119.3" font-family="Times,serif" font-size="14.00">_layout</text>
</g>
<!-- RiderApplicationsController -->
<g id="node3" class="node">
<title>RiderApplicationsController</title>
<path fill="none" stroke="black" d="M12,-0.5C12,-0.5 164.19,-0.5 164.19,-0.5 170.19,-0.5 176.19,-6.5 176.19,-12.5 176.19,-12.5 176.19,-190.5 176.19,-190.5 176.19,-196.5 170.19,-202.5 164.19,-202.5 164.19,-202.5 12,-202.5 12,-202.5 6,-202.5 0,-196.5 0,-190.5 0,-190.5 0,-12.5 0,-12.5 0,-6.5 6,-0.5 12,-0.5"/>
<text text-anchor="middle" x="88.1" y="-187.3" font-family="Times,serif" font-size="14.00">RiderApplicationsController</text>
<polyline fill="none" stroke="black" points="0,-180.5 176.19,-180.5 "/>
<text text-anchor="start" x="8" y="-165.3" font-family="Times,serif" font-size="14.00">create</text>
<text text-anchor="start" x="8" y="-151.3" font-family="Times,serif" font-size="14.00">destroy</text>
<text text-anchor="start" x="8" y="-137.3" font-family="Times,serif" font-size="14.00">edit</text>
<text text-anchor="start" x="8" y="-123.3" font-family="Times,serif" font-size="14.00">index</text>
<text text-anchor="start" x="8" y="-109.3" font-family="Times,serif" font-size="14.00">new</text>
<text text-anchor="start" x="8" y="-95.3" font-family="Times,serif" font-size="14.00">show</text>
<text text-anchor="start" x="8" y="-81.3" font-family="Times,serif" font-size="14.00">update</text>
<polyline fill="none" stroke="black" points="0,-74.5 176.19,-74.5 "/>
<polyline fill="none" stroke="black" points="0,-50.5 176.19,-50.5 "/>
<text text-anchor="start" x="8" y="-35.3" font-family="Times,serif" font-size="14.00">_layout</text>
<text text-anchor="start" x="8" y="-21.3" font-family="Times,serif" font-size="14.00">rider_application_params</text>
<text text-anchor="start" x="8" y="-7.3" font-family="Times,serif" font-size="14.00">set_rider_application</text>
</g>
<!-- GreetingsController -->
<g id="node4" class="node">
<title>GreetingsController</title>
<path fill="none" stroke="black" d="M236,-240.5C236,-240.5 339.97,-240.5 339.97,-240.5 345.97,-240.5 351.97,-246.5 351.97,-252.5 351.97,-252.5 351.97,-318.5 351.97,-318.5 351.97,-324.5 345.97,-330.5 339.97,-330.5 339.97,-330.5 236,-330.5 236,-330.5 230,-330.5 224,-324.5 224,-318.5 224,-318.5 224,-252.5 224,-252.5 224,-246.5 230,-240.5 236,-240.5"/>
<text text-anchor="middle" x="287.99" y="-315.3" font-family="Times,serif" font-size="14.00">GreetingsController</text>
<polyline fill="none" stroke="black" points="224,-308.5 351.97,-308.5 "/>
<text text-anchor="start" x="232" y="-293.3" font-family="Times,serif" font-size="14.00">hello</text>
<polyline fill="none" stroke="black" points="224,-286.5 351.97,-286.5 "/>
<polyline fill="none" stroke="black" points="224,-262.5 351.97,-262.5 "/>
<text text-anchor="start" x="232" y="-247.3" font-family="Times,serif" font-size="14.00">_layout</text>
</g>
</g>
</svg>
