<?xml version="1.0" encoding="UTF-8" standalone="no"?>
<!DOCTYPE svg PUBLIC "-//W3C//DTD SVG 1.1//EN"
 "http://www.w3.org/Graphics/SVG/1.1/DTD/svg11.dtd">
<!-- Generated by graphviz version 2.43.0 (0)
 -->
<!-- Title: models_diagram Pages: 1 -->
<svg width="709pt" height="179pt"
 viewBox="0.00 0.00 709.08 179.00" xmlns="http://www.w3.org/2000/svg" xmlns:xlink="http://www.w3.org/1999/xlink">
<g id="graph0" class="graph" transform="scale(1 1) rotate(0) translate(4 175)">
<title>models_diagram</title>
<polygon fill="transparent" stroke="transparent" points="-4,4 -4,-175 705.08,-175 705.08,4 -4,4"/>
<!-- _diagram_info -->
<g id="node1" class="node">
<title>_diagram_info</title>
<text text-anchor="start" x="8" y="-107.6" font-family="Times,serif" font-size="13.00">Models diagram</text>
<text text-anchor="start" x="8" y="-94.6" font-family="Times,serif" font-size="13.00">Date: Oct 18 2019 &#45; 00:24</text>
<text text-anchor="start" x="8" y="-81.6" font-family="Times,serif" font-size="13.00">Migration version: 20191016215222</text>
<text text-anchor="start" x="8" y="-68.6" font-family="Times,serif" font-size="13.00">Generated by RailRoady 1.5.3</text>
<text text-anchor="start" x="8" y="-55.6" font-family="Times,serif" font-size="13.00">http://railroady.prestonlee.com</text>
</g>
<!-- RiderApplication -->
<g id="node2" class="node">
<title>RiderApplication</title>
<path fill="none" stroke="black" d="M237.23,-0.5C237.23,-0.5 516.14,-0.5 516.14,-0.5 522.14,-0.5 528.14,-6.5 528.14,-12.5 528.14,-12.5 528.14,-158.5 528.14,-158.5 528.14,-164.5 522.14,-170.5 516.14,-170.5 516.14,-170.5 237.23,-170.5 237.23,-170.5 231.23,-170.5 225.23,-164.5 225.23,-158.5 225.23,-158.5 225.23,-12.5 225.23,-12.5 225.23,-6.5 231.23,-0.5 237.23,-0.5"/>
<text text-anchor="middle" x="376.69" y="-155.3" font-family="Times,serif" font-size="14.00">RiderApplication</text>
<polyline fill="none" stroke="black" points="225.23,-148.5 528.14,-148.5 "/>
<text text-anchor="start" x="233.23" y="-133.3" font-family="Times,serif" font-size="14.00">application_received :timestamp without time zone</text>
<text text-anchor="start" x="233.23" y="-119.3" font-family="Times,serif" font-size="14.00">Name :character varying</text>
<text text-anchor="start" x="233.23" y="-105.3" font-family="Times,serif" font-size="14.00">Phone :character varying</text>
<text text-anchor="start" x="233.23" y="-91.3" font-family="Times,serif" font-size="14.00">created_at :timestamp without time zone</text>
<text text-anchor="start" x="233.23" y="-77.3" font-family="Times,serif" font-size="14.00">updated_at :timestamp without time zone</text>
<text text-anchor="start" x="233.23" y="-63.3" font-family="Times,serif" font-size="14.00">street_address :character varying</text>
<text text-anchor="start" x="233.23" y="-49.3" font-family="Times,serif" font-size="14.00">zip_code :integer</text>
<text text-anchor="start" x="233.23" y="-35.3" font-family="Times,serif" font-size="14.00">city :character varying</text>
<text text-anchor="start" x="233.23" y="-21.3" font-family="Times,serif" font-size="14.00">number_passengers :integer</text>
<text text-anchor="start" x="233.23" y="-7.3" font-family="Times,serif" font-size="14.00">id :integer</text>
</g>
<!-- ApplicationRecord -->
<g id="node3" class="node">
<title>ApplicationRecord</title>
<ellipse fill="none" stroke="black" cx="623.69" cy="-85.5" rx="77.29" ry="18"/>
<text text-anchor="middle" x="623.69" y="-81.3" font-family="Times,serif" font-size="14.00">ApplicationRecord</text>
</g>
</g>
</svg>
